Patient4_TMGait_0pt2_01_right_22_EMG.mot
version=1
nRows=13
nColumns=33
inDegrees=no
endheader
time	1LAddLong	2LGlutMax	3LGlutMed	4LIliopsoas	5LSemiMemb	6LBicFemLong	7LRecFem	8LVastMed	9LVastLat	10LGasMed	11LTibAnt	12lTibPost	13LPeroneusLong	14LSol	15LExtDigLong	16LFlexDigLong	17RAddLong	18RGlutMax	19RGlutMed	20RIliopsoas	21RSemiMemb	22RBicFemLong	23RRecFem	24RVastMed	25RVastLat	26RGasMed	27RTibAnt	28RTibPost	29RPeroneusLong	30RSol	31RExtDigLong	32RFlexDigLong
51.75	0.009308	0.12512	0.058746	-0.005646	-0.02121	0.023651	-0.011597	-0.002289	-0.054169	0.006256	-0.014191	0.017853	0.004578	0.031281	0.032959	0.010681	-0.035095	-0.035858	-0.34012	-0.062256	0.10101	0.091858	-0.061188	0.012665	0.032654	0.0177	-0.242	-0.002594	0.34302	-0.2507	0.001526	0.004425
51.751	0.014191	0.11261	0.112	-0.01709	-0.023041	0.032501	-0.023193	-0.018921	-0.091553	0.026855	-0.021667	0.021057	-0.042114	-0.019989	0.013733	0.003967	-0.032959	-0.010834	-0.099945	-0.004883	0.10101	0.095825	-0.058136	0.02121	0.030823	0.009308	-0.60898	-0.00885	0.12573	-0.13702	0.000458	0.002136
51.752	-0.013733	0.1059	0.1033	-0.010834	-0.05127	0.012665	0.053711	0.007782	-0.00061	0.018921	-0.015564	0.013733	0.04425	-0.019989	-0.059967	-0.006714	-0.024109	-0.033264	-0.18066	0.068207	0.10986	0.063782	-0.019684	-0.039978	0.00824	0.002594	-0.34393	-0.009918	-0.24933	-0.062561	0.000305	0.004578
51.753	0.026703	0.14175	0.076141	0.002594	-0.042572	-0.006256	0.074921	0.011139	0.063782	0.016327	-0.098114	0.019226	-0.049896	-0.010071	-0.16708	-0.002899	0.00473	-0.026093	-0.56473	0.062561	0.11185	0.039673	0.000153	-0.044861	0.002594	-0.005188	0.10696	-0.009003	0.002441	-0.003357	0.000153	0.009003
51.754	-0.013885	0.168	-0.050201	0.00412	0.088196	-0.00351	0.076447	0.010071	0.08194	0.014191	-0.028992	0.017548	-0.080872	0.011139	0.13199	-0.012665	-0.010071	-0.022736	-0.21454	0.013123	0.12405	-0.007324	0.002289	-0.075684	0.007172	0.000916	0.4129	-0.011292	0.020599	0.053864	-0.000305	0.010071
51.755	-0.033264	0.1416	0.11185	-0.000916	0.045319	0.096436	0.1004	0.025482	0.008087	0.003204	0.044098	0.016327	0.053101	0.054321	0.006104	-0.003052	-0.007477	-0.003967	-0.054932	0.030518	0.12375	-0.047302	-0.00412	-0.059967	0.015259	0.00473	0.67505	-0.01297	-0.027618	0.012817	-0.005341	0.010681
51.756	-0.016022	0.17136	0.24109	0.020447	-0.085754	0.073395	0.061493	0.005798	0.048676	0.001068	0.031738	0.017242	0.23819	0.085144	0.89233	-0.009918	-0.006104	-0.027161	-0.20279	0.14038	0.14099	-0.054169	-0.021362	-0.036469	0.005951	-0.006714	0.89874	-0.011444	-0.13412	0.072632	-0.002441	0.007477
51.757	0.006409	0.11124	0.075989	0.028534	-0.11566	-0.011749	0.055542	0.005646	-0.046844	0.017548	0.099487	0.018005	-0.088806	0.077209	-0.069275	-0.00412	-0.005951	0.005188	-0.38223	0.14816	0.13794	-0.03067	-0.017395	-0.006409	0.021973	0.001678	0.025024	-0.01709	-0.097656	0.074921	-0.001678	0.003967
51.758	0.030212	0.10941	0.11688	0.028687	0.02655	-0.064697	0.051575	0.010223	-0.33066	-0.000305	0.1384	0.01709	-0.15076	0.096741	-0.34332	0.007324	-0.002441	0.016327	-0.14755	0.10559	0.12665	-0.010681	-0.023041	-0.036163	0.028381	-0.00351	-0.40497	-0.014954	0.055237	-0.01358	0.00061	0.000763
51.759	0.03891	0.068054	-0.001221	0.014496	0.098724	-0.025482	-0.00412	-0.005341	-0.3093	-0.013733	0.1471	0.015869	0.087128	0.10391	-0.040894	0.013123	0.005188	0.027313	-0.00473	0.02243	0.12054	0.019989	-0.038147	-0.046234	0.02594	-0.000916	0.30548	-0.019684	0.014038	-0.081787	-0.00061	0.001984
51.76	0.027771	0.023193	0.031738	-0.006866	0.079041	-0.00824	0.042725	-0.008545	-0.11978	0.008698	0.092773	0.018311	0.067902	0.018158	-0.035706	-0.007019	0.010071	-0.016479	-0.3009	0.029907	0.10895	0.029907	0.00351	-0.02243	0.013885	-0.005188	0.36163	-0.01358	-0.001068	-0.13977	0.002136	-0.0177
51.761	0.027618	0.039063	-0.052643	-0.000916	0.054169	-0.005188	0.11887	-0.011292	0.031738	-0.029144	0.18097	0.015106	0.31784	0.12528	-0.41763	-0.013123	0.082855	-0.029297	-0.58105	0.054321	0.10223	0.031586	0.023499	-0.060883	0.016022	-0.00946	0.3894	-0.011292	-0.09964	-0.092621	0.004578	-0.020142
51.762	0.012817	0.05249	-0.012207	-0.034332	0.013733	0.017548	0.13901	0.006409	-0.071259	-0.031433	0.082855	0.012665	0.4483	0.19669	-0.14145	-0.002441	0.11734	0.049591	0.032349	0.049744	0.084076	0.040131	0.006866	-0.067596	0.026398	-0.003052	-0.079803	-0.012207	-0.035858	-0.05661	-0.000458	-0.016632
